<svg width="620" height="620" viewBox="0 0 620 620" fill="none" xmlns="http://www.w3.org/2000/svg">
<rect width="620" height="620" rx="100" fill="white"/>
<path d="M187.803 386C160.876 386 135.219 374.546 117.242 354.499C84.2745 317.735 85.06 261.817 119.047 225.993L198.66 142.077C218.392 121.279 245.802 109.5 274.471 109.5H472C481.941 109.5 490 117.559 490 127.5C490 137.441 481.941 145.5 472 145.5H276.52C249.179 145.5 223.148 157.218 205.022 177.688L143.999 246.601C122.388 271.006 122.58 307.758 144.446 331.936C156.576 345.348 173.816 353 191.899 353H353.5C362.613 353 370 360.387 370 369.5C370 378.613 362.613 386 353.5 386H187.803Z" fill="#9400D3" stroke="#9400D3" stroke-width="9"/>
<path d="M432.697 234C459.624 234 485.281 245.454 503.258 265.501C536.226 302.265 535.44 358.183 501.453 394.007L421.84 477.923C402.108 498.721 374.698 510.5 346.029 510.5H148.5C138.559 510.5 130.5 502.441 130.5 492.5C130.5 482.559 138.559 474.5 148.5 474.5H343.98C371.321 474.5 397.352 462.782 415.478 442.312L476.501 373.399C498.112 348.994 497.92 312.242 476.054 288.064C463.924 274.652 446.684 267 428.601 267H267C257.887 267 250.5 259.613 250.5 250.5C250.5 241.387 257.887 234 267 234H432.697Z" fill="#9400D3" stroke="#9400D3" stroke-width="9"/>
</svg>
