<svg width="491" height="410" viewBox="0 0 491 410" fill="none" xmlns="http://www.w3.org/2000/svg">
<path d="M122.803 281C95.8756 281 70.2193 269.546 52.2422 249.499C19.2745 212.735 20.06 156.817 54.0469 120.993L133.66 37.0771C153.392 16.2788 180.802 4.5001 209.471 4.5H407C416.941 4.5 425 12.5589 425 22.5C425 32.4411 416.941 40.5 407 40.5H211.52C184.179 40.5001 158.148 52.2184 140.022 72.6875L78.999 141.601C57.3876 166.006 57.58 202.758 79.4463 226.936C91.5763 240.348 108.816 248 126.899 248H288.5C297.613 248 305 255.387 305 264.5C305 273.613 297.613 281 288.5 281H122.803Z" fill="#9400D3" stroke="#9400D3" stroke-width="9"/>
<path d="M367.697 129C394.624 129 420.281 140.454 438.258 160.501C471.226 197.265 470.44 253.183 436.453 289.007L356.84 372.923C337.108 393.721 309.698 405.5 281.029 405.5H83.5C73.5589 405.5 65.5 397.441 65.5 387.5C65.5 377.559 73.5589 369.5 83.5 369.5H278.98C306.321 369.5 332.352 357.782 350.478 337.312L411.501 268.399C433.112 243.994 432.92 207.242 411.054 183.064C398.924 169.652 381.684 162 363.601 162H202C192.887 162 185.5 154.613 185.5 145.5C185.5 136.387 192.887 129 202 129H367.697Z" fill="#9400D3" stroke="#9400D3" stroke-width="9"/>
</svg>
